<svg width="512" height="512" viewBox="0 0 512 512" fill="none" xmlns="http://www.w3.org/2000/svg">
<g clip-path="url(#clip0_101_147)">
<rect width="512" height="512" fill="white"/>
<path d="M35.84 209.111C46.08 149.361 71.4138 77.2096 131.779 59.9859C219.085 35.072 252.611 170.281 306.76 192.246C339.098 205.373 422.933 177.562 460.36 211.773C519.803 266.107 436.449 356.393 388.772 383.222C319.14 422.38 225.802 436.224 174.234 417.28C116.408 396.022 70.656 348.436 51.4458 312.32C39.0861 289.126 31.3344 235.52 35.84 209.111Z" fill="#92E3A9"/>
<path opacity="0.7" d="M460.37 211.773C422.932 177.562 339.098 205.373 306.77 192.246C252.611 170.281 219.136 35.072 131.779 59.9859C71.4138 77.2096 46.08 149.361 35.84 209.111C31.3344 235.52 39.0861 289.126 51.4458 312.32C70.656 348.436 116.408 396.022 174.244 417.28C225.813 436.224 319.191 422.4 388.782 383.222C436.46 356.352 519.813 266.107 460.37 211.773Z" fill="white"/>
<path d="M173.189 426.875C173.189 426.875 18.9952 452.925 169.984 452.925C333.292 452.925 473.876 426.875 382.659 426.875H173.189Z" fill="#999999"/>
<path d="M37.8163 426.875H474.081" stroke="#263238" stroke-width="1.03017" stroke-linecap="round" stroke-linejoin="round"/>
<path d="M377.856 117.074H134.144C111.061 137.633 93.5544 163.698 83.2541 192.843C72.9538 221.988 70.1944 253.265 75.233 283.763C80.2715 314.261 92.9441 342.988 112.071 367.271C131.198 391.554 156.158 410.603 184.627 422.646C191.183 425.427 198.231 426.865 205.353 426.875H306.534C313.66 426.867 320.711 425.429 327.27 422.646C355.745 410.612 380.712 391.57 399.848 367.292C418.984 343.014 431.667 314.289 436.716 283.791C441.764 253.293 439.015 222.013 428.724 192.864C418.432 163.714 400.934 137.642 377.856 117.074Z" fill="white"/>
<path d="M72.704 253.86C72.7125 289.878 83.3327 325.096 103.238 355.114C123.143 385.132 151.452 408.621 184.627 422.646C191.183 425.427 198.231 426.865 205.353 426.875H306.534C313.66 426.867 320.711 425.429 327.27 422.646C350.684 412.743 371.782 398.077 389.223 379.581C406.664 361.086 420.067 339.164 428.58 315.21C437.093 291.256 440.53 265.793 438.673 240.439C436.816 215.085 429.705 190.394 417.792 167.936H94.1159C80.0276 194.383 72.6735 223.894 72.704 253.86Z" fill="#92E3A9"/>
<path opacity="0.5" d="M72.704 253.86C72.7125 289.878 83.3327 325.096 103.238 355.114C123.143 385.132 151.452 408.621 184.627 422.646C191.183 425.427 198.231 426.865 205.353 426.875H306.534C313.66 426.867 320.711 425.429 327.27 422.646C350.684 412.743 371.782 398.077 389.223 379.581C406.664 361.086 420.067 339.164 428.58 315.21C437.093 291.256 440.53 265.793 438.673 240.439C436.816 215.085 429.705 190.394 417.792 167.936H94.1159C80.0276 194.383 72.6735 223.894 72.704 253.86Z" fill="white"/>
<path d="M255.949 172.37C345.321 172.37 417.772 170.394 417.772 167.956C417.772 165.519 345.321 163.543 255.949 163.543C166.577 163.543 94.1261 165.519 94.1261 167.956C94.1261 170.394 166.577 172.37 255.949 172.37Z" fill="#92E3A9"/>
<path opacity="0.1" d="M289.434 367.176C182.886 373.412 131.072 257.229 93.481 251.167C82.6573 249.426 76.3495 253.358 72.8474 259.84C73.9919 294.818 85.1261 328.738 104.934 357.59C124.742 386.442 152.396 409.02 184.627 422.656C191.183 425.438 198.231 426.876 205.353 426.885H306.534C313.66 426.877 320.711 425.439 327.27 422.656C371.466 403.916 406.582 368.636 425.114 324.352C393.114 315.72 395.971 360.94 289.434 367.176Z" fill="black"/>
<path opacity="0.2" d="M325.059 117.074H323.308C346.389 137.637 363.893 163.705 374.19 192.853C384.486 222 387.241 253.279 382.197 283.777C377.153 314.276 364.475 343.002 345.343 367.283C326.211 391.564 301.246 410.609 272.773 422.646C266.218 425.429 259.169 426.868 252.047 426.875H280.166C287.334 426.875 304.886 425.421 311.439 422.646C344.612 408.621 372.916 385.132 392.815 355.112C412.714 325.093 423.324 289.875 423.322 253.86C423.322 199.475 388.362 133.12 325.059 117.074Z" fill="white"/>
<path d="M377.856 117.074H134.144C111.061 137.633 93.5544 163.698 83.2541 192.843C72.9538 221.988 70.1944 253.265 75.233 283.763C80.2715 314.261 92.9441 342.988 112.071 367.271C131.198 391.554 156.158 410.603 184.627 422.646C191.183 425.427 198.231 426.865 205.353 426.875H306.534C313.66 426.867 320.711 425.429 327.27 422.646C355.745 410.612 380.712 391.57 399.848 367.292C418.984 343.014 431.667 314.289 436.716 283.791C441.764 253.293 439.015 222.013 428.724 192.864C418.432 163.714 400.934 137.642 377.856 117.074Z" stroke="#263238" stroke-width="1.03017" stroke-linecap="round" stroke-linejoin="round"/>
<path d="M377.856 117.074C377.856 119.521 323.297 121.498 256 121.498C188.703 121.498 134.144 119.521 134.144 117.074C134.144 114.627 188.652 112.64 256 112.64C323.348 112.64 377.856 114.688 377.856 117.074Z" fill="#999999" stroke="#263238" stroke-width="1.03017" stroke-linecap="round" stroke-linejoin="round"/>
<path d="M169.779 320.809C169.779 320.809 172.851 306.35 170.455 305.828C168.059 305.306 166.779 321.987 166.779 321.987C166.779 321.987 164.803 306.135 162.181 306.893C159.56 307.651 164.434 322.785 164.434 322.785C164.434 322.785 158.505 308.449 156.426 308.859C154.348 309.268 161.618 323.758 161.618 323.758C161.618 323.758 153.651 311.47 151.91 312.556C150.17 313.641 158.351 325.489 158.351 325.489C158.351 325.489 150.426 314.358 148.972 315.464C147.517 316.57 154.276 325.704 154.972 326.605C154.307 325.693 148.101 317.389 146.883 318.546C145.664 319.703 152.187 328.018 152.74 328.714C152.238 328.079 146.678 321.116 145.439 321.874C144.2 322.632 149.77 329.574 149.77 329.574C149.77 329.574 145.613 324.229 144.364 325.13C143.114 326.031 147.261 330.312 147.261 330.312L145.459 330.916C142.1 323.058 139.114 315.047 136.499 306.883C147.343 305.05 164.68 299.971 165.458 286.812C166.482 270.09 162.652 289.464 162.652 289.464C162.652 289.464 161.751 274.237 159.959 274.719C158.167 275.2 160.481 293.591 160.481 293.591C160.481 293.591 155.965 274.319 154.46 275.016C153.18 275.61 156.355 289.935 157.338 294.216C156.375 290.12 153.17 277.074 151.695 277.719C149.955 278.477 154.767 296.428 154.767 296.428C154.767 296.428 150.047 281.068 148.838 281.283C147.63 281.498 152.3 297.779 152.3 297.779C152.3 297.779 145.828 280.156 144.108 280.945C142.387 281.733 149.893 299.766 149.893 299.766C149.893 299.766 141.517 283.73 140.237 284.303C138.957 284.877 146.176 298.209 147.241 300.206C146.289 298.424 140.483 287.775 139.233 288.461C138.322 288.963 141.21 294.461 143.217 298.045C141.384 294.973 138.701 290.724 138.097 291.41C137.206 292.485 142.94 301.701 142.94 301.701C142.94 301.701 137.452 293.56 136.387 294.4C135.322 295.24 140.79 302.295 140.79 302.295C140.79 302.295 136.049 297.267 135.137 298.199C134.226 299.131 139.233 303.493 139.233 303.493C139.233 303.493 136.909 302.469 134.922 301.752C132.25 292.884 130.017 283.894 128.205 274.842C139.213 274.237 157.256 271.043 159.406 257.833C162.13 241.121 156.334 260.188 156.334 260.188C156.334 260.188 157.041 244.828 155.197 245.094C153.354 245.361 153.743 264.1 153.743 264.1C153.743 264.1 150.231 244.193 149.699 244.797C148.511 246.149 148.562 249.917 149.023 254.208C148.296 250.307 147.446 246.968 146.668 247.214C144.855 247.788 147.804 266.342 147.804 266.342C147.804 266.342 144.732 250.358 143.493 250.491C142.254 250.624 145.213 267.428 145.213 267.428C145.213 267.428 140.616 248.996 138.803 249.631C136.991 250.266 142.592 269.158 142.592 269.158C142.592 269.158 135.926 252.15 134.605 252.58C133.284 253.01 139.059 267.264 139.909 269.312C139.151 267.438 134.482 256.092 133.171 256.645C132.209 257.044 134.513 262.881 136.131 266.701C134.625 263.393 132.403 258.857 131.758 259.482C130.734 260.506 135.496 270.336 135.496 270.336C135.496 270.336 130.888 261.571 129.731 262.298C128.573 263.025 133.294 270.705 133.294 270.705C133.294 270.705 128.358 265.185 127.355 266.056C126.351 266.926 131.574 271.749 131.574 271.749C131.574 271.749 129.126 270.295 127.16 269.394C125.665 261.202 124.518 252.928 123.699 244.705C134.318 245.996 146.36 243.507 152.556 233.779C162.181 218.634 149.811 234.598 149.811 234.598C149.811 234.598 154.317 219.955 151.982 219.238C149.647 218.522 146.708 235.622 146.708 235.622C146.708 235.622 146.33 219.054 143.636 219.617C140.943 220.18 144.282 236.227 144.282 236.227C144.282 236.227 139.827 220.867 137.718 221.184C135.608 221.501 141.384 237.005 141.384 237.005C141.384 237.005 134.697 223.693 132.854 224.717C131.011 225.741 137.974 238.561 137.974 238.561C137.974 238.561 131.205 226.478 129.649 227.523C128.092 228.567 133.939 238.459 134.513 239.452C133.96 238.5 128.594 229.468 127.273 230.574C125.952 231.68 131.594 240.681 132.086 241.449C131.635 240.742 126.802 233.257 125.501 233.912C124.201 234.568 129.055 242.104 129.055 242.104C129.055 242.104 124.713 236.421 123.382 237.271C122.051 238.121 126.454 242.698 126.454 242.698L123.484 243.507C123.411 243.043 123.169 242.623 122.804 242.328C122.438 242.033 121.977 241.884 121.508 241.91C120.977 242.005 120.505 242.305 120.194 242.746C119.884 243.187 119.76 243.733 119.849 244.265C119.854 244.299 119.854 244.333 119.849 244.367L118.036 243.937C118.036 243.937 122.696 239.995 122.44 238.817C122.184 237.64 116.163 242.913 116.163 242.913C116.163 242.913 120.576 237.107 119.46 236.39C118.344 235.674 114.34 242.166 114.34 242.166C114.34 242.166 117.914 233.492 116.685 232.899C115.456 232.305 112.108 242.196 112.108 242.196C112.108 242.196 115.466 231.148 114.36 230.246C113.705 229.704 112.312 234.138 111.217 237.763C112.312 233.523 113.623 227.727 112.691 227.43C111.555 227.052 109.087 236.114 108.032 240.251C109.22 235.418 112.036 223.519 110.961 223.242C109.609 222.904 104.919 242.299 104.919 242.299C105.82 235.561 107.182 220.498 106.609 220.396C106.609 220.396 102.707 234.639 102.052 240.876C102.052 240.876 103.209 221.737 101.97 221.696C100.731 221.655 99.3178 240.128 99.3178 240.128C99.4816 233.277 99.1846 218.225 98.6522 218.173L96.3584 239.841C96.3584 239.841 96 215.593 95.5699 215.552C95.5699 215.552 93.1328 238.633 93.1226 238.633C93.1123 238.633 92.9485 218.378 90.0506 216.187C89.3235 215.634 90.0506 234.445 90.0506 234.445C90.0506 234.445 82.3399 211.917 86.7226 232.069C89.9277 246.743 108.227 247.132 120.044 245.381C120.781 252.781 121.805 260.185 123.116 267.592C121.508 268.339 118.866 273.357 118.866 273.357C118.866 273.357 122.604 265.021 121.16 264.479C119.716 263.936 116.531 271.462 115.866 273.019C116.603 271.299 120.381 262.246 119.02 261.325C117.658 260.403 113.777 269.783 113.111 271.432C113.797 269.701 117.873 259.318 116.367 258.478C114.862 257.638 109.486 271.227 109.486 271.227C109.486 271.227 114.842 256.696 112.937 255.867C111.032 255.037 105.882 270.203 105.882 270.203C105.882 270.203 109.978 252.733 107.858 252.559C105.738 252.385 102.902 269.824 102.902 269.824C102.902 269.824 104.581 251.679 101.878 251.197C99.1744 250.716 100.352 269.455 100.352 269.455C100.352 269.455 95.7542 250.153 93.4707 251.167C91.1872 252.18 97.1469 268.851 97.1469 268.851C97.1469 268.851 83.3331 252.099 94.3104 268.319C100.833 277.944 114.33 278.405 124.436 275.046C126.239 284.14 128.471 293.181 131.123 302.1C130.161 303.616 129.299 305.193 128.543 306.821C128.543 306.821 130.171 298.127 128.87 297.718C127.57 297.308 126.331 307.128 126.331 307.128C126.331 307.128 128.154 296.038 126.945 295.311C126.208 294.871 125.389 299.346 124.836 302.971C125.348 298.732 125.86 292.977 124.897 292.803C123.709 292.588 122.501 301.66 122.01 305.777C122.532 300.984 123.72 289.126 122.614 288.993C121.221 288.829 119.204 308.122 119.204 308.122C119.204 301.527 120.474 288.84 117.903 286.781C117.187 286.208 116.163 307.118 116.163 307.118C116.163 307.118 114.708 288.502 113.48 288.604C112.251 288.707 113.357 306.739 113.357 306.739C112.599 300.124 110.285 285.614 109.711 285.635L110.356 306.831C110.356 306.831 106.721 283.464 106.26 283.484C106.26 283.484 106.977 306.012 106.967 306.012C106.957 306.012 104.038 286.495 100.895 284.713C100.076 284.252 103.322 302.336 103.322 302.336C103.322 302.336 92.5799 281.487 99.6967 300.431C104.817 313.917 121.948 312.515 133.417 309.504C135.417 315.587 137.615 321.597 140.012 327.537C139.449 329.473 139.071 331.458 138.885 333.466C138.885 333.466 139.182 324.25 137.677 324.424C136.325 324.536 136.09 332.759 136.059 334.479C136.059 332.575 136.151 322.734 134.584 322.499C133.018 322.263 132.987 332.483 132.997 334.275C132.997 332.401 132.803 321.178 131.133 321.085C129.311 320.983 129.669 335.729 129.669 335.729C129.669 335.729 129.096 320.154 127.068 320.236C125.041 320.317 126.044 336.394 126.044 336.394C126.044 336.394 123.228 318.689 121.262 319.498C119.296 320.307 123.249 337.418 123.249 337.418C123.249 337.418 117.985 320.195 115.374 321.034C112.763 321.874 120.924 338.309 120.924 338.309C120.924 338.309 109.599 322.949 107.94 324.997C106.281 327.045 117.842 339.251 117.842 339.251C117.842 339.251 99.2256 330.711 115.128 340.101C124.221 345.477 135.281 340.47 142.776 334.162C148.876 348.212 156.27 361.664 164.864 374.344C165.099 374.724 165.461 375.01 165.887 375.151C166.312 375.291 166.773 375.277 167.188 375.112C167.306 375.057 167.416 374.988 167.516 374.907C167.921 374.574 168.182 374.099 168.247 373.578C168.312 373.058 168.175 372.533 167.864 372.111C159.422 359.637 152.158 346.405 146.166 332.585C156.344 332.8 167.342 329.431 172.421 319.764C180.562 304.302 169.779 320.809 169.779 320.809Z" fill="#92E3A9"/>
<path opacity="0.3" d="M169.779 320.809C169.779 320.809 172.851 306.35 170.455 305.828C168.059 305.306 166.779 321.987 166.779 321.987C166.779 321.987 164.803 306.135 162.181 306.893C159.56 307.651 164.434 322.785 164.434 322.785C164.434 322.785 158.505 308.449 156.426 308.859C154.348 309.268 161.618 323.758 161.618 323.758C161.618 323.758 153.651 311.47 151.91 312.556C150.17 313.641 158.351 325.489 158.351 325.489C158.351 325.489 150.426 314.358 148.972 315.464C147.517 316.57 154.276 325.704 154.972 326.605C154.307 325.693 148.101 317.389 146.883 318.546C145.664 319.703 152.187 328.018 152.74 328.714C152.238 328.079 146.678 321.116 145.439 321.874C144.2 322.632 149.77 329.574 149.77 329.574C149.77 329.574 145.613 324.229 144.364 325.13C143.114 326.031 147.261 330.312 147.261 330.312L145.459 330.916C142.1 323.058 139.114 315.047 136.499 306.883C147.343 305.05 164.68 299.971 165.458 286.812C166.482 270.09 162.652 289.464 162.652 289.464C162.652 289.464 161.751 274.237 159.959 274.719C158.167 275.2 160.481 293.591 160.481 293.591C160.481 293.591 155.965 274.319 154.46 275.016C153.18 275.61 156.355 289.935 157.338 294.216C156.375 290.12 153.17 277.074 151.695 277.719C149.955 278.477 154.767 296.428 154.767 296.428C154.767 296.428 150.047 281.068 148.838 281.283C147.63 281.498 152.3 297.779 152.3 297.779C152.3 297.779 145.828 280.156 144.108 280.945C142.387 281.733 149.893 299.766 149.893 299.766C149.893 299.766 141.517 283.73 140.237 284.303C138.957 284.877 146.176 298.209 147.241 300.206C146.289 298.424 140.483 287.775 139.233 288.461C138.322 288.963 141.21 294.461 143.217 298.045C141.384 294.973 138.701 290.724 138.097 291.41C137.206 292.485 142.94 301.701 142.94 301.701C142.94 301.701 137.452 293.56 136.387 294.4C135.322 295.24 140.79 302.295 140.79 302.295C140.79 302.295 136.049 297.267 135.137 298.199C134.226 299.131 139.233 303.493 139.233 303.493C139.233 303.493 136.909 302.469 134.922 301.752C132.25 292.884 130.017 283.894 128.205 274.842C139.213 274.237 157.256 271.043 159.406 257.833C162.13 241.121 156.334 260.188 156.334 260.188C156.334 260.188 157.041 244.828 155.197 245.094C153.354 245.361 153.743 264.1 153.743 264.1C153.743 264.1 150.231 244.193 149.699 244.797C148.511 246.149 148.562 249.917 149.023 254.208C148.296 250.307 147.446 246.968 146.668 247.214C144.855 247.788 147.804 266.342 147.804 266.342C147.804 266.342 144.732 250.358 143.493 250.491C142.254 250.624 145.213 267.428 145.213 267.428C145.213 267.428 140.616 248.996 138.803 249.631C136.991 250.266 142.592 269.158 142.592 269.158C142.592 269.158 135.926 252.15 134.605 252.58C133.284 253.01 139.059 267.264 139.909 269.312C139.151 267.438 134.482 256.092 133.171 256.645C132.209 257.044 134.513 262.881 136.131 266.701C134.625 263.393 132.403 258.857 131.758 259.482C130.734 260.506 135.496 270.336 135.496 270.336C135.496 270.336 130.888 261.571 129.731 262.298C128.573 263.025 133.294 270.705 133.294 270.705C133.294 270.705 128.358 265.185 127.355 266.056C126.351 266.926 131.574 271.749 131.574 271.749C131.574 271.749 129.126 270.295 127.16 269.394C125.665 261.202 124.518 252.928 123.699 244.705C134.318 245.996 146.36 243.507 152.556 233.779C162.181 218.634 149.811 234.598 149.811 234.598C149.811 234.598 154.317 219.955 151.982 219.238C149.647 218.522 146.708 235.622 146.708 235.622C146.708 235.622 146.33 219.054 143.636 219.617C140.943 220.18 144.282 236.227 144.282 236.227C144.282 236.227 139.827 220.867 137.718 221.184C135.608 221.501 141.384 237.005 141.384 237.005C141.384 237.005 134.697 223.693 132.854 224.717C131.011 225.741 137.974 238.561 137.974 238.561C137.974 238.561 131.205 226.478 129.649 227.523C128.092 228.567 133.939 238.459 134.513 239.452C133.96 238.5 128.594 229.468 127.273 230.574C125.952 231.68 131.594 240.681 132.086 241.449C131.635 240.742 126.802 233.257 125.501 233.912C124.201 234.568 129.055 242.104 129.055 242.104C129.055 242.104 124.713 236.421 123.382 237.271C122.051 238.121 126.454 242.698 126.454 242.698L123.484 243.507C123.411 243.043 123.169 242.623 122.804 242.328C122.438 242.033 121.977 241.884 121.508 241.91C120.977 242.005 120.505 242.305 120.194 242.746C119.884 243.187 119.76 243.733 119.849 244.265C119.854 244.299 119.854 244.333 119.849 244.367L118.036 243.937C118.036 243.937 122.696 239.995 122.44 238.817C122.184 237.64 116.163 242.913 116.163 242.913C116.163 242.913 120.576 237.107 119.46 236.39C118.344 235.674 114.34 242.166 114.34 242.166C114.34 242.166 117.914 233.492 116.685 232.899C115.456 232.305 112.108 242.196 112.108 242.196C112.108 242.196 115.466 231.148 114.36 230.246C113.705 229.704 112.312 234.138 111.217 237.763C112.312 233.523 113.623 227.727 112.691 227.43C111.555 227.052 109.087 236.114 108.032 240.251C109.22 235.418 112.036 223.519 110.961 223.242C109.609 222.904 104.919 242.299 104.919 242.299C105.82 235.561 107.182 220.498 106.609 220.396C106.609 220.396 102.707 234.639 102.052 240.876C102.052 240.876 103.209 221.737 101.97 221.696C100.731 221.655 99.3178 240.128 99.3178 240.128C99.4816 233.277 99.1846 218.225 98.6522 218.173L96.3584 239.841C96.3584 239.841 96 215.593 95.5699 215.552C95.5699 215.552 93.1328 238.633 93.1226 238.633C93.1123 238.633 92.9485 218.378 90.0506 216.187C89.3235 215.634 90.0506 234.445 90.0506 234.445C90.0506 234.445 82.3399 211.917 86.7226 232.069C89.9277 246.743 108.227 247.132 120.044 245.381C120.781 252.781 121.805 260.185 123.116 267.592C121.508 268.339 118.866 273.357 118.866 273.357C118.866 273.357 122.604 265.021 121.16 264.479C119.716 263.936 116.531 271.462 115.866 273.019C116.603 271.299 120.381 262.246 119.02 261.325C117.658 260.403 113.777 269.783 113.111 271.432C113.797 269.701 117.873 259.318 116.367 258.478C114.862 257.638 109.486 271.227 109.486 271.227C109.486 271.227 114.842 256.696 112.937 255.867C111.032 255.037 105.882 270.203 105.882 270.203C105.882 270.203 109.978 252.733 107.858 252.559C105.738 252.385 102.902 269.824 102.902 269.824C102.902 269.824 104.581 251.679 101.878 251.197C99.1744 250.716 100.352 269.455 100.352 269.455C100.352 269.455 95.7542 250.153 93.4707 251.167C91.1872 252.18 97.1469 268.851 97.1469 268.851C97.1469 268.851 83.3331 252.099 94.3104 268.319C100.833 277.944 114.33 278.405 124.436 275.046C126.239 284.14 128.471 293.181 131.123 302.1C130.161 303.616 129.299 305.193 128.543 306.821C128.543 306.821 130.171 298.127 128.87 297.718C127.57 297.308 126.331 307.128 126.331 307.128C126.331 307.128 128.154 296.038 126.945 295.311C126.208 294.871 125.389 299.346 124.836 302.971C125.348 298.732 125.86 292.977 124.897 292.803C123.709 292.588 122.501 301.66 122.01 305.777C122.532 300.984 123.72 289.126 122.614 288.993C121.221 288.829 119.204 308.122 119.204 308.122C119.204 301.527 120.474 288.84 117.903 286.781C117.187 286.208 116.163 307.118 116.163 307.118C116.163 307.118 114.708 288.502 113.48 288.604C112.251 288.707 113.357 306.739 113.357 306.739C112.599 300.124 110.285 285.614 109.711 285.635L110.356 306.831C110.356 306.831 106.721 283.464 106.26 283.484C106.26 283.484 106.977 306.012 106.967 306.012C106.957 306.012 104.038 286.495 100.895 284.713C100.076 284.252 103.322 302.336 103.322 302.336C103.322 302.336 92.5799 281.487 99.6967 300.431C104.817 313.917 121.948 312.515 133.417 309.504C135.417 315.587 137.615 321.597 140.012 327.537C139.449 329.473 139.071 331.458 138.885 333.466C138.885 333.466 139.182 324.25 137.677 324.424C136.325 324.536 136.09 332.759 136.059 334.479C136.059 332.575 136.151 322.734 134.584 322.499C133.018 322.263 132.987 332.483 132.997 334.275C132.997 332.401 132.803 321.178 131.133 321.085C129.311 320.983 129.669 335.729 129.669 335.729C129.669 335.729 129.096 320.154 127.068 320.236C125.041 320.317 126.044 336.394 126.044 336.394C126.044 336.394 123.228 318.689 121.262 319.498C119.296 320.307 123.249 337.418 123.249 337.418C123.249 337.418 117.985 320.195 115.374 321.034C112.763 321.874 120.924 338.309 120.924 338.309C120.924 338.309 109.599 322.949 107.94 324.997C106.281 327.045 117.842 339.251 117.842 339.251C117.842 339.251 99.2256 330.711 115.128 340.101C124.221 345.477 135.281 340.47 142.776 334.162C148.876 348.212 156.27 361.664 164.864 374.344C165.099 374.724 165.461 375.01 165.887 375.151C166.312 375.291 166.773 375.277 167.188 375.112C167.306 375.057 167.416 374.988 167.516 374.907C167.921 374.574 168.182 374.099 168.247 373.578C168.312 373.058 168.175 372.533 167.864 372.111C159.422 359.637 152.158 346.405 146.166 332.585C156.344 332.8 167.342 329.431 172.421 319.764C180.562 304.302 169.779 320.809 169.779 320.809Z" fill="black"/>
<path d="M203.1 319.355C203.1 319.355 210.34 301.691 207.421 300.483C204.503 299.274 199.014 320.164 199.014 320.164C199.014 320.164 200.172 299.551 196.659 299.909C193.147 300.268 195.85 320.625 195.85 320.625C195.85 320.625 191.642 301.056 188.908 301.056C186.173 301.056 192.041 321.198 192.041 321.198C192.041 321.198 184.76 303.79 182.303 304.701C179.845 305.613 187.494 322.642 187.494 322.642C187.494 322.642 179.999 306.657 177.889 307.732C175.78 308.808 182.282 321.915 182.948 323.267C182.303 321.966 176.343 309.955 174.531 311.163C172.718 312.371 179.077 324.424 179.651 325.437C179.159 324.516 173.701 314.378 171.95 315.054C170.199 315.73 175.677 325.837 175.677 325.837C175.677 325.837 171.633 318.085 169.83 318.945C168.028 319.805 172.319 326.195 172.319 326.195L169.892 326.543C167.434 315.791 165.509 304.896 164.065 293.939C178.268 294.124 201.472 291.676 205.517 275.149C210.637 254.126 201.329 277.862 201.329 277.862C201.329 277.862 203.715 258.304 201.329 258.499C198.943 258.693 197.632 282.624 197.632 282.624C197.632 282.624 196.362 257.096 194.284 257.628C192.522 258.089 193.26 277.023 193.505 282.685C193.229 277.279 192.174 259.942 190.157 260.413C187.761 260.987 189.768 284.918 189.768 284.918C189.768 284.918 187.341 264.243 185.743 264.305C184.146 264.366 186.327 286.054 186.327 286.054C186.327 286.054 182.17 262.175 179.784 262.769C177.398 263.363 182.784 288.02 182.784 288.02C182.784 288.02 175.841 265.708 174.09 266.138C172.339 266.568 178.422 285.184 179.313 287.969C178.504 285.481 173.599 270.561 171.858 271.186C170.588 271.606 172.974 279.265 174.694 284.293C173.087 279.931 170.598 273.94 169.759 274.678C168.366 275.835 173.527 288.87 173.527 288.87C173.527 288.87 168.407 277.258 166.881 278.088C165.356 278.917 170.66 289.137 170.66 289.137C170.66 289.137 165.796 281.641 164.413 282.665C163.031 283.689 168.346 290.314 168.346 290.314C168.346 290.314 165.622 288.44 163.226 287.109C161.894 275.231 161.178 263.291 160.932 251.372C175.053 253.143 198.717 253.256 204.513 237.036C211.845 216.433 200.069 239.319 200.069 239.319C200.069 239.319 204.524 219.914 202.117 219.863C199.711 219.812 195.871 243.681 195.871 243.681C195.871 243.681 196.014 217.58 195.195 218.225C193.372 219.668 192.553 224.481 192.123 230.011C192.123 224.891 191.805 220.447 190.761 220.58C188.314 220.897 187.771 245.156 187.771 245.156C187.771 245.156 187.556 224.133 185.958 224.02C184.361 223.908 184.228 245.934 184.228 245.934C184.228 245.934 182.641 221.501 180.193 221.839C177.746 222.177 180.49 247.521 180.49 247.521C180.49 247.521 175.974 224.369 174.182 224.614C172.39 224.86 176.466 244.224 177.06 247.142C176.517 244.582 173.21 229.089 171.418 229.489C170.107 229.775 171.674 237.681 172.861 242.954C171.715 238.397 169.933 232.12 168.96 232.765C167.455 233.789 171.203 247.419 171.203 247.419C171.203 247.419 167.383 235.213 165.745 235.878C164.106 236.544 168.325 247.378 168.325 247.378C168.325 247.378 163.328 239.186 161.853 240.097C160.379 241.009 165.949 248.289 165.949 248.289C165.949 248.289 163.174 245.873 160.829 244.265C160.829 233.492 161.29 222.761 162.15 212.101C175.34 216.197 191.222 215.828 201.339 204.933C217.088 187.924 197.663 205.332 197.663 205.332C197.663 205.332 206.787 187.771 204.001 186.255C201.216 184.74 193.536 205.711 193.536 205.711C193.536 205.711 196.905 184.576 193.362 184.668C189.819 184.76 190.29 205.926 190.29 205.926C190.29 205.926 188.18 185.446 185.436 185.293C182.692 185.139 186.46 206.234 186.46 206.234C186.46 206.234 181.033 187.802 178.483 188.6C175.933 189.399 181.77 207.37 181.77 207.37C181.77 207.37 175.974 190.464 173.752 191.427C171.53 192.389 176.66 206.316 177.172 207.708C176.681 206.367 171.96 193.649 170.004 194.744C168.049 195.84 173.158 208.589 173.599 209.684C173.189 208.66 168.806 197.99 166.984 198.584C165.161 199.178 169.595 209.848 169.595 209.848C169.595 209.848 165.396 201.656 163.512 202.404C161.628 203.151 166.205 210.002 166.205 210.002L162.253 210.35C162.265 209.743 162.052 209.153 161.655 208.693C161.258 208.234 160.705 207.938 160.102 207.862C159.409 207.872 158.747 208.149 158.253 208.635C157.759 209.122 157.471 209.78 157.45 210.473C157.455 210.517 157.455 210.562 157.45 210.606L155.249 209.633C155.249 209.633 162.079 205.711 162.017 204.206C161.956 202.701 153.098 207.954 153.098 207.954C153.098 207.954 160.041 201.605 158.792 200.428C157.542 199.25 150.886 206.572 150.886 206.572C150.886 206.572 157.44 196.383 156.006 195.308C154.573 194.232 148.05 206.06 148.05 206.06C148.05 206.06 154.87 192.799 153.682 191.406C152.965 190.566 150.108 195.86 147.937 200.233C150.313 195.113 153.313 188.027 152.207 187.433C150.845 186.696 145.623 197.673 143.309 202.639C145.94 196.782 152.279 182.323 150.979 181.719C149.34 180.972 138.895 204.524 138.895 204.524C141.588 196.168 146.801 177.357 146.115 177.091C146.115 177.091 137.841 194.284 135.578 202.076C135.578 202.076 141.466 178.022 139.909 177.674C138.353 177.326 132.27 200.509 132.27 200.509C134.062 191.846 137.175 172.646 136.499 172.462L128.553 199.465C128.553 199.465 133.673 168.571 133.181 168.417C133.181 168.417 124.733 197.181 124.723 197.181C124.713 197.181 129.198 171.407 126.044 167.956C125.245 167.076 121.764 191.14 121.764 191.14C121.764 191.14 117.176 160.778 118.088 187.351C118.764 206.746 141.967 211.476 157.348 211.927C156.583 221.484 156.153 231.127 156.058 240.855C153.836 241.428 149.33 247.194 149.33 247.194C149.33 247.194 155.996 237.476 154.286 236.442C152.76 235.52 146.801 244.255 145.582 246.067C146.913 244.019 153.825 233.431 152.3 231.946C150.774 230.461 143.677 241.48 142.449 243.415C143.729 241.367 151.306 229.079 149.617 227.707C147.743 226.171 137.923 242.319 137.923 242.319C137.923 242.319 148.091 225.096 145.869 223.59C143.647 222.085 133.581 240.118 133.581 240.118C133.581 240.118 142.797 218.87 140.186 218.163C137.574 217.457 129.946 238.95 129.946 238.95C129.946 238.95 136.192 216.32 132.874 215.04C129.556 213.76 126.792 237.988 126.792 237.988C126.792 237.988 125.42 212.388 122.276 213.166C119.132 213.944 122.88 236.544 122.88 236.544C122.88 236.544 109.22 212.06 119.409 235.192C125.46 248.945 142.51 252.662 156.119 250.716C156.314 262.697 157.051 274.708 158.362 286.648C156.783 288.348 155.319 290.151 153.979 292.045C153.979 292.045 158.075 281.385 156.508 280.556C154.941 279.726 151.101 291.932 151.101 291.932C151.101 291.932 155.986 278.262 154.614 277.053C153.795 276.326 151.706 281.815 150.17 286.269C151.798 281.006 153.784 273.807 152.596 273.357C151.142 272.814 147.476 284.068 145.93 289.178C147.702 283.208 151.951 268.411 150.579 267.991C148.859 267.459 141.824 291.543 141.824 291.543C143.319 283.156 147.896 267.336 145.111 264.12C144.333 263.219 138.199 289.556 138.199 289.556C138.199 289.556 140.657 265.574 139.059 265.421C137.462 265.267 134.707 288.43 134.707 288.43C135.281 279.849 135.67 260.864 134.953 260.782L130.857 287.857C130.857 287.857 131.656 257.331 131.082 257.249C131.082 257.249 126.761 286.085 126.751 286.085C126.74 286.085 127.549 260.608 123.976 257.608C123.034 256.829 122.952 280.566 122.952 280.566C122.952 280.566 114.135 251.587 118.784 277.299C122.102 295.608 144.261 297.779 159.529 296.643C160.655 304.835 162.055 312.979 163.727 321.075C162.564 323.403 161.628 325.838 160.932 328.346C160.932 328.346 163.43 316.754 161.485 316.58C159.744 316.416 157.542 326.82 157.102 328.98C157.573 326.574 159.939 314.081 158.003 313.426C156.068 312.771 153.661 325.714 153.252 328.018C153.661 325.632 156.037 311.327 153.938 310.825C151.654 310.272 148.695 329.093 148.695 329.093C148.695 329.093 151.572 309.166 148.982 308.808C146.391 308.449 143.933 329.103 143.933 329.103C143.933 329.103 144.456 305.951 141.763 306.524C139.069 307.098 140.165 329.728 140.165 329.728C140.165 329.728 137.462 306.627 133.96 307.077C130.458 307.528 137.032 330.301 137.032 330.301C137.032 330.301 126.167 308.224 123.597 310.405C121.027 312.586 132.874 330.813 132.874 330.813C132.874 330.813 111.186 315.648 129.219 331.264C139.53 340.193 154.737 336.384 165.755 330.117C170.24 349.364 176.51 368.15 184.484 386.232C184.694 386.771 185.088 387.218 185.595 387.496C186.103 387.773 186.692 387.862 187.259 387.748C187.422 387.708 187.58 387.65 187.73 387.574C188.317 387.241 188.756 386.697 188.958 386.052C189.159 385.408 189.108 384.711 188.815 384.102C180.963 366.285 174.792 347.772 170.383 328.806C183.255 331.438 198.031 329.697 206.694 318.566C220.621 300.882 203.1 319.355 203.1 319.355Z" fill="#92E3A9" stroke="#263238" stroke-width="0.772628" stroke-miterlimit="10"/>
<path d="M173.189 376.617C173.189 376.617 179.272 369.254 189.573 374.057C189.573 374.057 203.653 371.814 211.343 381.42C211.343 381.42 220.621 377.58 226.703 384.297C226.703 384.297 234.455 385.597 235.029 388.137C235.029 388.137 244.961 383.017 247.839 388.137C247.839 388.137 262.881 383.662 267.366 390.38C271.852 397.097 260.004 404.152 260.004 404.152H237.865L203.285 400.947L185.344 390.38L173.189 376.617Z" fill="#858585" stroke="#263238" stroke-width="1.03017" stroke-linecap="round" stroke-linejoin="round"/>
<path d="M379.361 389.233C379.494 377.692 363.356 386.857 363.356 386.857C361.308 375.511 351.519 386.222 351.519 386.222C344.156 379.177 330.701 393.267 330.701 393.267C330.066 388.465 320.778 390.697 320.778 390.697C318.218 380.14 300.616 389.417 300.616 389.417C298.373 381.102 288.768 387.185 288.768 387.185C281.405 379.177 275.64 389.417 275.64 389.417C268.278 385.26 260.598 391.342 260.598 391.342C256.43 388.137 250.665 393.267 250.665 393.267C246.508 388.782 232.735 391.025 232.735 391.025C223.457 383.334 210.33 387.82 210.33 387.82C203.602 381.42 197.519 384.297 197.519 384.297C194.324 377.252 188.242 378.86 188.242 378.86C185.354 374.057 178.319 374.374 178.319 374.374C171.592 368.292 162.632 371.497 162.632 371.497C155.587 363.172 145.981 370.217 145.981 370.217C140.216 359.332 128.696 364.134 128.696 364.134C119.624 354.509 111.288 356.014 105.902 359.014C125.673 387.178 152.948 409.231 184.627 422.666C191.183 425.448 198.231 426.886 205.353 426.895H306.534C313.66 426.887 320.711 425.449 327.27 422.666C346.404 414.555 364.018 403.25 379.361 389.233Z" fill="#263238" stroke="#263238" stroke-width="0.772628" stroke-linecap="round" stroke-linejoin="round"/>
<path d="M142.612 376.156C141.752 378.788 138.22 374.712 132.803 372.941C127.386 371.169 122.122 372.357 122.982 369.715C123.843 367.073 128.942 366.387 134.369 368.159C139.796 369.93 143.483 373.514 142.612 376.156Z" fill="#858585" stroke="#263238" stroke-width="1.03017" stroke-linecap="round" stroke-linejoin="round"/>
<path d="M363.08 391.834C363.868 394.496 358.646 393.134 353.167 394.752C347.689 396.37 344.054 400.333 343.265 397.67C342.477 395.008 346.276 391.526 351.754 389.929C357.233 388.332 362.291 389.171 363.08 391.834Z" fill="#999999" stroke="#263238" stroke-width="1.03017" stroke-linecap="round" stroke-linejoin="round"/>
<path d="M159.119 386.253C158.546 388.403 155.535 385.3 151.101 384.113C146.668 382.925 142.52 384.113 143.094 381.983C143.667 379.853 147.722 379.034 152.146 380.221C156.57 381.409 159.744 384.102 159.119 386.253Z" fill="#999999" stroke="#263238" stroke-width="1.03017" stroke-linecap="round" stroke-linejoin="round"/>
<path d="M207.319 389.642C207.319 391.414 204.37 389.724 200.725 389.816C197.079 389.908 194.171 391.772 194.12 390.001C194.069 388.229 196.987 386.703 200.632 386.611C204.278 386.519 207.278 387.871 207.319 389.642Z" fill="#858585" stroke="#263238" stroke-width="1.03017" stroke-linecap="round" stroke-linejoin="round"/>
<path d="M183.491 387.768C183.491 389.581 180.48 387.82 176.753 387.871C173.025 387.922 170.045 389.775 170.015 387.963C169.984 386.15 172.984 384.645 176.712 384.594C180.439 384.543 183.47 385.966 183.491 387.768Z" fill="#858585" stroke="#263238" stroke-width="1.03017" stroke-linecap="round" stroke-linejoin="round"/>
<path d="M190.085 384.266C189.973 385.649 187.781 384.072 184.965 383.836C182.149 383.601 179.702 384.788 179.845 383.406C179.988 382.024 182.364 381.092 185.201 381.358C188.037 381.624 190.208 382.884 190.085 384.266Z" fill="#999999" stroke="#263238" stroke-width="1.03017" stroke-linecap="round" stroke-linejoin="round"/>
<path d="M316.416 391.967C316.293 393.349 314.112 391.782 311.296 391.537C308.48 391.291 306.033 392.489 306.176 391.107C306.319 389.724 308.695 388.803 311.532 389.059C314.368 389.315 316.498 390.584 316.416 391.967Z" fill="#858585" stroke="#263238" stroke-width="1.03017" stroke-linecap="round" stroke-linejoin="round"/>
<path d="M342.016 397.384C341.903 398.766 339.712 397.189 336.896 396.954C334.08 396.718 331.633 397.906 331.776 396.524C331.919 395.141 334.285 394.209 337.132 394.476C339.978 394.742 342.159 396.001 342.016 397.384Z" fill="#858585" stroke="#263238" stroke-width="1.03017" stroke-linecap="round" stroke-linejoin="round"/>
<path d="M286.648 391.834C286.853 393.206 284.365 392.161 281.528 392.571C278.692 392.98 276.623 394.691 276.408 393.318C276.193 391.946 278.333 390.492 281.16 390.083C283.986 389.673 286.454 390.461 286.648 391.834Z" fill="#858585" stroke="#263238" stroke-width="1.03017" stroke-linecap="round" stroke-linejoin="round"/>
<path d="M197.407 394.772C197.294 396.165 195.103 394.588 192.287 394.342C189.471 394.097 187.023 395.295 187.167 393.912C187.31 392.53 189.686 391.608 192.522 391.864C195.359 392.12 197.53 393.39 197.407 394.772Z" fill="#858585" stroke="#263238" stroke-width="1.03017" stroke-linecap="round" stroke-linejoin="round"/>
<path d="M220.754 394.772C220.641 396.165 218.45 394.588 215.634 394.342C212.818 394.097 210.371 395.295 210.514 393.912C210.657 392.53 213.033 391.608 215.869 391.864C218.706 392.12 220.877 393.39 220.754 394.772Z" fill="#999999" stroke="#263238" stroke-width="1.03017" stroke-linecap="round" stroke-linejoin="round"/>
<path d="M276.972 396.544C276.849 397.926 274.657 396.349 271.852 396.114C269.046 395.878 266.588 397.066 266.732 395.684C266.875 394.301 269.251 393.37 272.087 393.636C274.924 393.902 277.084 395.162 276.972 396.544Z" fill="#999999" stroke="#263238" stroke-width="1.03017" stroke-linecap="round" stroke-linejoin="round"/>
<path d="M163.84 374.548C163.727 376.596 160.41 374.364 156.191 374.139C151.972 373.914 148.48 375.808 148.531 373.76C148.582 371.712 152.156 370.217 156.385 370.442C160.614 370.668 163.942 372.49 163.84 374.548Z" fill="#858585" stroke="#263238" stroke-width="1.03017" stroke-linecap="round" stroke-linejoin="round"/>
<path d="M181.565 378.143C181.33 379.781 178.821 377.754 175.421 377.283C172.022 376.812 169.073 378.061 169.277 376.422C169.482 374.784 172.431 373.821 175.811 374.303C179.19 374.784 181.791 376.494 181.565 378.143Z" fill="#858585" stroke="#263238" stroke-width="1.03017" stroke-linecap="round" stroke-linejoin="round"/>
<path d="M173.189 381.164C173.087 383.212 169.759 380.989 165.54 380.764C161.321 380.539 157.778 382.423 157.88 380.365C157.983 378.307 161.505 376.822 165.734 377.037C169.964 377.252 173.302 379.116 173.189 381.164Z" fill="#858585" stroke="#263238" stroke-width="1.03017" stroke-linecap="round" stroke-linejoin="round"/>
<path d="M302.397 394.291C302.541 396.339 298.977 394.527 294.748 394.813C290.519 395.1 287.252 397.384 287.109 395.336C286.966 393.288 290.273 391.383 294.502 391.096C298.732 390.81 302.254 392.192 302.397 394.291Z" fill="#858585" stroke="#263238" stroke-width="1.03017" stroke-linecap="round" stroke-linejoin="round"/>
<path d="M360.1 367.176C364.749 367.176 368.517 363.407 368.517 358.758C368.517 354.11 364.749 350.341 360.1 350.341C355.451 350.341 351.683 354.11 351.683 358.758C351.683 363.407 355.451 367.176 360.1 367.176Z" fill="white" stroke="#263238" stroke-width="1.03017" stroke-linecap="round" stroke-linejoin="round"/>
<path d="M365.373 360.745C365.178 361.276 364.902 361.773 364.554 362.22Z" fill="white"/>
<path d="M365.373 360.745C365.178 361.276 364.902 361.773 364.554 362.22" stroke="#263238" stroke-width="1.03017" stroke-linecap="round" stroke-linejoin="round"/>
<path d="M360.1 353.126C361.594 353.126 363.026 353.72 364.082 354.776C365.138 355.832 365.732 357.265 365.732 358.758" fill="white"/>
<path d="M360.1 353.126C361.594 353.126 363.026 353.72 364.082 354.776C365.138 355.832 365.732 357.265 365.732 358.758" stroke="#263238" stroke-width="1.03017" stroke-linecap="round" stroke-linejoin="round"/>
<path d="M383.918 271.954C383.918 273.155 383.562 274.329 382.895 275.328C382.227 276.326 381.279 277.104 380.17 277.564C379.06 278.024 377.839 278.144 376.661 277.91C375.483 277.675 374.401 277.097 373.552 276.248C372.703 275.398 372.124 274.316 371.89 273.139C371.656 271.961 371.776 270.74 372.236 269.63C372.695 268.521 373.474 267.572 374.472 266.905C375.471 266.238 376.645 265.882 377.846 265.882C378.643 265.882 379.433 266.039 380.17 266.344C380.906 266.649 381.576 267.096 382.14 267.66C382.703 268.224 383.151 268.893 383.456 269.63C383.761 270.367 383.918 271.156 383.918 271.954Z" fill="white" stroke="#263238" stroke-width="0.772628" stroke-linecap="round" stroke-linejoin="round"/>
<path d="M381.655 273.408C381.509 273.777 381.309 274.122 381.061 274.432Z" fill="white"/>
<path d="M381.655 273.408C381.509 273.777 381.309 274.122 381.061 274.432" stroke="#263238" stroke-width="0.772628" stroke-linecap="round" stroke-linejoin="round"/>
<path d="M377.856 267.889C378.942 267.889 379.984 268.32 380.752 269.088C381.52 269.856 381.952 270.898 381.952 271.985" fill="white"/>
<path d="M377.856 267.889C378.942 267.889 379.984 268.32 380.752 269.088C381.52 269.856 381.952 270.898 381.952 271.985" stroke="#263238" stroke-width="0.772628" stroke-linecap="round" stroke-linejoin="round"/>
<path d="M363.141 214.016C363.143 215.217 362.789 216.392 362.123 217.392C361.457 218.392 360.509 219.172 359.4 219.633C358.29 220.095 357.069 220.216 355.89 219.983C354.712 219.75 353.629 219.172 352.779 218.324C351.928 217.475 351.349 216.393 351.114 215.215C350.879 214.036 350.998 212.815 351.458 211.705C351.917 210.595 352.695 209.646 353.694 208.978C354.693 208.31 355.867 207.954 357.069 207.954C357.866 207.953 358.655 208.108 359.392 208.412C360.128 208.716 360.798 209.163 361.362 209.726C361.926 210.289 362.373 210.958 362.679 211.694C362.984 212.43 363.141 213.219 363.141 214.016Z" fill="white" stroke="#263238" stroke-width="0.772628" stroke-linecap="round" stroke-linejoin="round"/>
<path d="M360.878 215.48C360.734 215.85 360.534 216.196 360.284 216.504Z" fill="white"/>
<path d="M360.878 215.48C360.734 215.85 360.534 216.196 360.284 216.504" stroke="#263238" stroke-width="0.772628" stroke-linecap="round" stroke-linejoin="round"/>
<path d="M357.069 209.981C358.155 209.981 359.197 210.413 359.965 211.181C360.733 211.949 361.165 212.991 361.165 214.077" fill="white"/>
<path d="M357.069 209.981C358.155 209.981 359.197 210.413 359.965 211.181C360.733 211.949 361.165 212.991 361.165 214.077" stroke="#263238" stroke-width="0.772628" stroke-linecap="round" stroke-linejoin="round"/>
<path d="M379.197 348.078C383.846 348.078 387.615 344.31 387.615 339.661C387.615 335.012 383.846 331.244 379.197 331.244C374.549 331.244 370.78 335.012 370.78 339.661C370.78 344.31 374.549 348.078 379.197 348.078Z" fill="white" stroke="#263238" stroke-width="1.03017" stroke-linecap="round" stroke-linejoin="round"/>
<path d="M382.536 335.114C383.249 335.639 383.829 336.323 384.229 337.113C384.629 337.903 384.838 338.775 384.84 339.661" fill="white"/>
<path d="M382.536 335.114C383.249 335.639 383.829 336.323 384.229 337.113C384.629 337.903 384.838 338.775 384.84 339.661" stroke="#263238" stroke-width="1.03017" stroke-linecap="round" stroke-linejoin="round"/>
<path d="M379.197 334.019C379.807 334.022 380.412 334.122 380.989 334.316Z" fill="white"/>
<path d="M379.197 334.019C379.807 334.022 380.412 334.122 380.989 334.316" stroke="#263238" stroke-width="1.03017" stroke-linecap="round" stroke-linejoin="round"/>
<path d="M384.564 209.6C389.515 204.65 389.515 196.623 384.564 191.672C379.614 186.721 371.587 186.721 366.636 191.672C361.686 196.623 361.686 204.649 366.636 209.6C371.587 214.551 379.614 214.551 384.564 209.6Z" fill="white" stroke="#263238" stroke-width="1.03017" stroke-linecap="round" stroke-linejoin="round"/>
<path d="M380.631 193.792C381.704 194.583 382.577 195.615 383.178 196.805C383.779 197.995 384.092 199.309 384.092 200.643" fill="white"/>
<path d="M380.631 193.792C381.704 194.583 382.577 195.615 383.178 196.805C383.779 197.995 384.092 199.309 384.092 200.643" stroke="#263238" stroke-width="1.03017" stroke-linecap="round" stroke-linejoin="round"/>
<path d="M375.603 192.143C376.522 192.147 377.434 192.296 378.307 192.584Z" fill="white"/>
<path d="M375.603 192.143C376.522 192.147 377.434 192.296 378.307 192.584" stroke="#263238" stroke-width="1.03017" stroke-linecap="round" stroke-linejoin="round"/>
<path d="M380.191 320.154C386.643 320.154 391.875 314.923 391.875 308.47C391.875 302.017 386.643 296.786 380.191 296.786C373.738 296.786 368.507 302.017 368.507 308.47C368.507 314.923 373.738 320.154 380.191 320.154Z" fill="white" stroke="#263238" stroke-width="1.03017" stroke-linecap="round" stroke-linejoin="round"/>
<path d="M384.829 302.162C385.819 302.889 386.624 303.839 387.179 304.935C387.734 306.031 388.024 307.241 388.024 308.47" fill="white"/>
<path d="M384.829 302.162C385.819 302.889 386.624 303.839 387.179 304.935C387.734 306.031 388.024 307.241 388.024 308.47" stroke="#263238" stroke-width="1.03017" stroke-linecap="round" stroke-linejoin="round"/>
<path d="M380.191 300.646C381.039 300.647 381.883 300.782 382.689 301.046Z" fill="white"/>
<path d="M380.191 300.646C381.039 300.647 381.883 300.782 382.689 301.046" stroke="#263238" stroke-width="1.03017" stroke-linecap="round" stroke-linejoin="round"/>
<path d="M352.123 279.47C355.346 279.47 357.96 276.857 357.96 273.633C357.96 270.41 355.346 267.796 352.123 267.796C348.899 267.796 346.286 270.41 346.286 273.633C346.286 276.857 348.899 279.47 352.123 279.47Z" fill="white" stroke="#263238" stroke-width="0.772628" stroke-linecap="round" stroke-linejoin="round"/>
<path d="M354.437 270.479C354.932 270.843 355.335 271.318 355.612 271.866C355.89 272.413 356.035 273.019 356.035 273.633" fill="white"/>
<path d="M354.437 270.479C354.932 270.843 355.335 271.318 355.612 271.866C355.89 272.413 356.035 273.019 356.035 273.633" stroke="#263238" stroke-width="0.772628" stroke-linecap="round" stroke-linejoin="round"/>
<path d="M352.123 269.722C352.548 269.722 352.969 269.791 353.372 269.926Z" fill="white"/>
<path d="M352.123 269.722C352.548 269.722 352.969 269.791 353.372 269.926" stroke="#263238" stroke-width="0.772628" stroke-linecap="round" stroke-linejoin="round"/>
<path d="M267.264 309.135C265.349 313.231 264.858 320.87 267.264 331.909C269.67 342.948 276.398 356.987 280.709 346.86C285.02 336.732 287.324 339.435 289.536 330.906C291.748 322.376 292.147 314.849 289.935 309.135C287.724 303.421 283.157 314.02 273.183 307.732C271.841 306.913 268.923 305.521 267.264 309.135Z" fill="white"/>
<mask id="mask0_101_147" style="mask-type:luminance" maskUnits="userSpaceOnUse" x="265" y="306" width="27" height="45">
<path d="M267.264 309.135C265.349 313.231 264.858 320.87 267.264 331.909C269.67 342.948 276.398 356.987 280.709 346.86C285.02 336.732 287.324 339.435 289.536 330.906C291.748 322.376 292.147 314.849 289.935 309.135C287.724 303.421 283.157 314.02 273.183 307.732C271.841 306.913 268.923 305.521 267.264 309.135Z" fill="white"/>
</mask>
<g mask="url(#mask0_101_147)">
<path d="M280.689 309.719C278.013 309.98 275.333 309.275 273.132 307.732C271.841 306.913 268.923 305.521 267.213 309.135C265.626 312.504 265.021 318.351 266.24 326.543C268.349 330.056 272.333 333.394 278.467 326.134C283.802 319.877 283.136 314.163 280.689 309.719Z" fill="#92E3A9"/>
<path opacity="0.2" d="M280.689 309.719C278.013 309.98 275.333 309.275 273.132 307.732C271.841 306.913 268.923 305.521 267.213 309.135C265.626 312.504 265.021 318.351 266.24 326.543C268.349 330.056 272.333 333.394 278.467 326.134C283.802 319.877 283.136 314.163 280.689 309.719Z" fill="black"/>
</g>
<path d="M267.264 309.135C265.349 313.231 264.858 320.87 267.264 331.909C269.67 342.948 276.398 356.987 280.709 346.86C285.02 336.732 287.324 339.435 289.536 330.906C291.748 322.376 292.147 314.849 289.935 309.135C287.724 303.421 283.157 314.02 273.183 307.732C271.841 306.913 268.923 305.521 267.264 309.135Z" stroke="#263238" stroke-width="1.03017" stroke-linecap="round" stroke-linejoin="round"/>
<path d="M276.019 338.022C276.578 339.028 277.197 339.999 277.873 340.931" stroke="#263238" stroke-width="0.772628" stroke-linecap="round" stroke-linejoin="round"/>
<path d="M269.036 313.395C269.036 313.395 270.152 325.417 274.596 335.206" stroke="#263238" stroke-width="0.772628" stroke-linecap="round" stroke-linejoin="round"/>
<path d="M274.432 319.13C276.367 323.512 279.296 328.96 283.146 332.964" stroke="#263238" stroke-width="0.772628" stroke-linecap="round" stroke-linejoin="round"/>
<path d="M272.579 314.655C272.835 315.341 273.132 316.119 273.48 316.959" stroke="#263238" stroke-width="0.772628" stroke-linecap="round" stroke-linejoin="round"/>
<path d="M275.866 313.395C278.518 316.078 282.89 319.621 286.577 318.362" stroke="#263238" stroke-width="0.772628" stroke-linecap="round" stroke-linejoin="round"/>
<path d="M225.516 268.605C225.516 268.605 224.788 257.341 237.036 251.812C249.283 246.282 254.556 247.962 254.556 247.962C254.556 247.962 266.557 235.479 281.18 240.282C295.803 245.084 301.107 258.048 305.664 257.812C310.221 257.577 332.554 233.564 353.915 226.847C375.276 220.129 372.398 234.527 368.804 240.763C365.21 246.999 368.323 251.812 349.594 262.605C330.865 273.398 345.088 272.691 327.537 273.408C327.537 273.408 337.377 274.821 339.538 280.115C341.699 285.409 354.181 293.816 355.144 306.299C356.106 318.781 355.86 336.302 335.217 318.781C314.573 301.261 312.166 297.656 308.593 291.891C305.019 286.126 301.148 283.976 299.95 289.26C298.752 294.543 297.789 306.534 278.579 310.62C259.369 314.706 250.737 302.213 244.982 298.619C239.227 295.025 232.253 286.331 226.488 283.976C220.723 281.62 221.184 269.814 225.516 268.605Z" fill="white"/>
<mask id="mask1_101_147" style="mask-type:luminance" maskUnits="userSpaceOnUse" x="222" y="225" width="150" height="102">
<path d="M225.516 268.605C225.516 268.605 224.788 257.341 237.036 251.812C249.283 246.282 254.556 247.962 254.556 247.962C254.556 247.962 266.557 235.479 281.18 240.282C295.803 245.084 301.107 258.048 305.664 257.812C310.221 257.577 332.554 233.564 353.915 226.847C375.276 220.129 372.398 234.527 368.804 240.763C365.21 246.999 368.323 251.812 349.594 262.605C330.865 273.398 345.088 272.691 327.537 273.408C327.537 273.408 337.377 274.821 339.538 280.115C341.699 285.409 354.181 293.816 355.144 306.299C356.106 318.781 355.86 336.302 335.217 318.781C314.573 301.261 312.166 297.656 308.593 291.891C305.019 286.126 301.148 283.976 299.95 289.26C298.752 294.543 297.789 306.534 278.579 310.62C259.369 314.706 250.737 302.213 244.982 298.619C239.227 295.025 232.253 286.331 226.488 283.976C220.723 281.62 221.184 269.814 225.516 268.605Z" fill="white"/>
</mask>
<g mask="url(#mask1_101_147)">
<path d="M320.829 273.623C327.455 268.902 323.389 269.158 322.939 265.892C322.488 262.625 333.179 249.897 330.762 245.832C329.564 243.784 326.287 244.101 323.318 244.91C314.593 251.72 307.958 257.69 305.684 257.812C301.128 258.048 295.844 245.084 281.201 240.282C266.557 235.479 254.577 247.962 254.577 247.962C254.577 247.962 249.293 246.282 237.056 251.812C224.819 257.341 225.536 268.605 225.536 268.605C222.464 269.466 221.317 275.773 223.037 280.115C223.191 275.128 232.97 281.344 238.684 286.259C244.398 291.174 252.283 287.488 255.99 287.078C259.697 286.669 261.714 282.112 264.387 283.249C267.059 284.385 261.11 289.188 262.605 290.417C264.1 291.645 268.483 288.584 272.097 283.167C275.712 277.75 280.975 270.684 289.249 274.442C297.523 278.2 297.083 298.598 297.083 298.598C298.477 295.645 299.443 292.507 299.95 289.28C301.148 283.996 304.988 286.157 308.593 291.912C309.412 293.243 310.18 294.451 311.122 295.741C313.528 298.875 318.915 300.145 323.113 295.813C327.455 291.277 314.214 278.333 320.829 273.623ZM263.485 248.084C263.259 248.081 263.038 248.009 262.853 247.877C262.669 247.745 262.529 247.56 262.452 247.346C262.375 247.132 262.365 246.9 262.424 246.681C262.482 246.462 262.606 246.265 262.779 246.118C265.247 244.07 270.244 241.193 277.924 242.207C278.163 242.241 278.384 242.351 278.556 242.521C278.727 242.691 278.84 242.912 278.876 243.15C278.913 243.389 278.872 243.633 278.76 243.847C278.647 244.06 278.469 244.232 278.252 244.337C274.975 245.903 269.312 248.105 263.475 248.084H263.485ZM283.423 270.868C281.068 271.616 277.187 272.507 274.483 271.299C273.939 271.051 273.488 270.637 273.196 270.116C272.904 269.595 272.786 268.994 272.859 268.401C272.932 267.807 273.193 267.253 273.603 266.819C274.013 266.384 274.551 266.092 275.139 265.984C276.268 265.782 277.42 265.751 278.559 265.892C280.584 266.091 282.491 266.939 283.996 268.308C284.188 268.491 284.33 268.72 284.407 268.974C284.483 269.227 284.493 269.496 284.434 269.755C284.375 270.013 284.25 270.252 284.071 270.447C283.892 270.642 283.665 270.788 283.412 270.868H283.423ZM302.633 263.25C302.463 263.115 302.331 262.939 302.25 262.738C302.168 262.537 302.141 262.318 302.17 262.103C302.199 261.888 302.283 261.685 302.415 261.512C302.546 261.34 302.72 261.205 302.92 261.12C304.671 260.393 307.128 259.574 307.599 260.424C308.285 261.673 308.081 267.53 302.623 263.25H302.633Z" fill="#92E3A9"/>
<path opacity="0.2" d="M294.687 270.868C294.468 270.59 294.322 270.262 294.26 269.913C294.198 269.564 294.223 269.206 294.332 268.869C294.441 268.532 294.632 268.228 294.886 267.982C295.141 267.736 295.452 267.556 295.793 267.459C299.786 266.312 306.115 265.062 306.391 268.483C306.801 273.49 304.917 282.88 302.152 281.999C299.756 281.252 298.588 275.927 294.687 270.868Z" fill="black"/>
</g>
<path d="M225.516 268.605C225.516 268.605 224.788 257.341 237.036 251.812C249.283 246.282 254.556 247.962 254.556 247.962C254.556 247.962 266.557 235.479 281.18 240.282C295.803 245.084 301.107 258.048 305.664 257.812C310.221 257.577 332.554 233.564 353.915 226.847C375.276 220.129 372.398 234.527 368.804 240.763C365.21 246.999 368.323 251.812 349.594 262.605C330.865 273.398 345.088 272.691 327.537 273.408C327.537 273.408 337.377 274.821 339.538 280.115C341.699 285.409 354.181 293.816 355.144 306.299C356.106 318.781 355.86 336.302 335.217 318.781C314.573 301.261 312.166 297.656 308.593 291.891C305.019 286.126 301.148 283.976 299.95 289.26C298.752 294.543 297.789 306.534 278.579 310.62C259.369 314.706 250.737 302.213 244.982 298.619C239.227 295.025 232.253 286.331 226.488 283.976C220.723 281.62 221.184 269.814 225.516 268.605Z" stroke="#263238" stroke-width="1.03017" stroke-linecap="round" stroke-linejoin="round"/>
<path d="M245.893 272.916C245.895 273.474 245.732 274.019 245.424 274.484C245.115 274.948 244.676 275.311 244.162 275.525C243.648 275.74 243.081 275.797 242.534 275.69C241.987 275.582 241.484 275.315 241.09 274.922C240.695 274.528 240.426 274.026 240.316 273.48C240.207 272.933 240.262 272.367 240.475 271.851C240.687 271.336 241.048 270.896 241.512 270.586C241.975 270.276 242.52 270.111 243.077 270.111C243.446 270.109 243.812 270.181 244.154 270.321C244.496 270.462 244.806 270.668 245.068 270.929C245.329 271.19 245.537 271.499 245.679 271.84C245.82 272.181 245.893 272.547 245.893 272.916Z" fill="#263238" stroke="#263238" stroke-width="1.03017" stroke-linecap="round" stroke-linejoin="round"/>
<path d="M244.511 272.916C244.511 273.2 244.427 273.477 244.269 273.713C244.112 273.949 243.888 274.132 243.626 274.241C243.364 274.349 243.076 274.378 242.797 274.323C242.519 274.267 242.264 274.131 242.063 273.93C241.863 273.73 241.726 273.474 241.671 273.196C241.616 272.918 241.644 272.63 241.753 272.368C241.861 272.106 242.045 271.882 242.281 271.724C242.516 271.567 242.794 271.483 243.077 271.483C243.457 271.483 243.822 271.634 244.091 271.903C244.36 272.172 244.511 272.536 244.511 272.916Z" fill="white" stroke="#263238" stroke-width="1.03017" stroke-linecap="round" stroke-linejoin="round"/>
<path d="M237.865 272.916C237.925 271.573 238.5 270.304 239.472 269.374C240.444 268.444 241.737 267.925 243.082 267.925C244.427 267.925 245.72 268.444 246.692 269.374C247.664 270.304 248.24 271.573 248.3 272.916" stroke="#263238" stroke-width="1.03017" stroke-linecap="round" stroke-linejoin="round"/>
<path d="M222.341 277.443C222.341 277.443 223.119 274.821 228.936 278.129" stroke="#263238" stroke-width="1.03017" stroke-linecap="round" stroke-linejoin="round"/>
<path d="M226.468 283.976C226.468 283.976 223.447 280.3 225.638 280.115C227.83 279.931 229.642 283.689 232.448 283.976C232.448 283.976 238.766 292.782 249.498 289.772C260.229 286.761 256.225 273.623 256.225 273.623" stroke="#263238" stroke-width="1.03017" stroke-linecap="round" stroke-linejoin="round"/>
<path d="M255.119 248.832C255.119 248.832 258.734 253.245 259.133 257.454C259.533 261.663 268.861 259.768 269.967 270.899C271.073 282.03 258.837 286.454 258.837 286.454" stroke="#263238" stroke-width="1.03017" stroke-linecap="round" stroke-linejoin="round"/>
<path d="M259.43 294.912C259.43 294.912 258.232 308.654 260.536 306.442C262.84 304.23 264.755 302.234 267.459 302.838C270.162 303.442 263.752 297.114 262.042 294.103C262.042 294.083 262.144 296.96 259.43 294.912Z" fill="#92E3A9" stroke="#263238" stroke-width="1.03017" stroke-linecap="round" stroke-linejoin="round"/>
<path d="M286.822 265.892C286.822 265.892 295.148 271.206 299.459 285.655" stroke="#263238" stroke-width="1.03017" stroke-linecap="round" stroke-linejoin="round"/>
<path d="M313.108 279.859C319.58 284.467 331.438 291.512 345.057 293.038" stroke="#263238" stroke-width="0.772628" stroke-linecap="round" stroke-linejoin="round"/>
<path d="M307.876 275.773C307.876 275.773 308.644 276.47 310.047 277.576" stroke="#263238" stroke-width="0.772628" stroke-linecap="round" stroke-linejoin="round"/>
<path d="M349.409 311.122C350.833 311.603 351.683 311.849 351.683 311.849" stroke="#263238" stroke-width="0.772628" stroke-linecap="round" stroke-linejoin="round"/>
<path d="M306.084 280.115C306.084 280.115 315.996 292.127 326.472 299.827C333.763 305.193 343.142 308.92 348.15 310.692" stroke="#263238" stroke-width="0.772628" stroke-linecap="round" stroke-linejoin="round"/>
<path d="M358.543 233.472C360.152 233.134 361.78 232.894 363.418 232.755" stroke="#263238" stroke-width="0.772628" stroke-linecap="round" stroke-linejoin="round"/>
<path d="M312.136 261.632C312.136 261.632 332.145 241.705 353.157 234.885" stroke="#263238" stroke-width="0.772628" stroke-linecap="round" stroke-linejoin="round"/>
<path d="M359.772 243.784C360.796 243.784 361.82 243.784 362.844 243.917" stroke="#263238" stroke-width="0.772628" stroke-linecap="round" stroke-linejoin="round"/>
<path d="M311.501 265.892C311.501 265.892 334.93 245.545 357.069 243.896" stroke="#263238" stroke-width="0.772628" stroke-linecap="round" stroke-linejoin="round"/>
<path d="M339.118 262.216C339.937 262.216 340.767 262.328 341.596 262.431" stroke="#263238" stroke-width="0.772628" stroke-linecap="round" stroke-linejoin="round"/>
<path d="M311.501 269.609C319.148 264.9 327.917 262.322 336.896 262.144" stroke="#263238" stroke-width="0.772628" stroke-linecap="round" stroke-linejoin="round"/>
<path d="M279.552 309.135C277.637 313.231 277.146 320.87 279.552 331.909C281.958 342.948 288.676 356.987 292.997 346.86C297.318 336.732 299.612 339.435 301.824 330.906C304.036 322.376 304.425 314.849 302.223 309.135C300.022 303.421 295.434 314.02 285.471 307.732C284.129 306.913 281.201 305.521 279.552 309.135Z" fill="white"/>
<mask id="mask2_101_147" style="mask-type:luminance" maskUnits="userSpaceOnUse" x="277" y="306" width="27" height="45">
<path d="M279.552 309.135C277.637 313.231 277.146 320.87 279.552 331.909C281.958 342.948 288.676 356.987 292.997 346.86C297.318 336.732 299.612 339.435 301.824 330.906C304.036 322.376 304.425 314.849 302.223 309.135C300.022 303.421 295.434 314.02 285.471 307.732C284.129 306.913 281.201 305.521 279.552 309.135Z" fill="white"/>
</mask>
<g mask="url(#mask2_101_147)">
<path d="M292.977 309.719C290.301 309.98 287.621 309.275 285.42 307.732C284.129 306.913 281.201 305.521 279.501 309.135C277.903 312.504 277.309 318.351 278.477 326.543C280.597 330.056 284.57 333.394 290.714 326.134C296.079 319.877 295.424 314.163 292.977 309.719Z" fill="#92E3A9"/>
</g>
<path d="M279.552 309.135C277.637 313.231 277.146 320.87 279.552 331.909C281.958 342.948 288.676 356.987 292.997 346.86C297.318 336.732 299.612 339.435 301.824 330.906C304.036 322.376 304.425 314.849 302.223 309.135C300.022 303.421 295.434 314.02 285.471 307.732C284.129 306.913 281.201 305.521 279.552 309.135Z" stroke="#263238" stroke-width="1.03017" stroke-linecap="round" stroke-linejoin="round"/>
<path d="M288.707 338.729C289.167 339.497 289.649 340.234 290.15 340.931" stroke="#263238" stroke-width="0.772628" stroke-linecap="round" stroke-linejoin="round"/>
<path d="M281.324 313.395C281.324 313.395 282.563 326.82 287.672 336.845" stroke="#263238" stroke-width="0.772628" stroke-linecap="round" stroke-linejoin="round"/>
<path d="M293.765 331.121C294.287 331.756 294.789 332.38 295.393 332.964" stroke="#263238" stroke-width="0.772628" stroke-linecap="round" stroke-linejoin="round"/>
<path d="M283.873 311.747C283.873 311.747 286.884 321.823 292.598 329.605" stroke="#263238" stroke-width="0.772628" stroke-linecap="round" stroke-linejoin="round"/>
<path d="M297.37 318.628C297.878 318.611 298.382 318.521 298.865 318.362" stroke="#263238" stroke-width="0.772628" stroke-linecap="round" stroke-linejoin="round"/>
<path d="M285.696 310.692C285.696 310.692 290.499 316.938 295.352 318.341" stroke="#263238" stroke-width="0.772628" stroke-linecap="round" stroke-linejoin="round"/>
<path d="M324.342 309.34C313.498 299.633 311.409 296.428 308.572 291.932C304.968 286.177 301.128 284.017 299.93 289.3C305.93 294.124 304.579 301.097 306.688 310.426C308.797 319.754 306.237 333.752 311.501 336.916C316.764 340.081 316.467 329.544 317.973 327.127C319.478 324.71 322.181 323.973 321.731 317.501C321.413 312.904 323.041 311.214 324.342 309.34Z" fill="white"/>
<mask id="mask3_101_147" style="mask-type:luminance" maskUnits="userSpaceOnUse" x="299" y="286" width="26" height="52">
<path d="M324.342 309.34C313.498 299.633 311.409 296.428 308.572 291.932C304.968 286.177 301.128 284.017 299.93 289.3C305.93 294.124 304.579 301.097 306.688 310.426C308.797 319.754 306.237 333.752 311.501 336.916C316.764 340.081 316.467 329.544 317.973 327.127C319.478 324.71 322.181 323.973 321.731 317.501C321.413 312.904 323.041 311.214 324.342 309.34Z" fill="white"/>
</mask>
<g mask="url(#mask3_101_147)">
<path d="M308.572 291.891C304.968 286.136 301.128 283.976 299.93 289.26C302.498 291.377 304.187 294.373 304.671 297.667C307.659 299.309 311.059 300.052 314.46 299.807C312.228 297.38 310.255 294.727 308.572 291.891Z" fill="#92E3A9"/>
<path opacity="0.2" d="M308.572 291.891C304.968 286.136 301.128 283.976 299.93 289.26C302.498 291.377 304.187 294.373 304.671 297.667C307.659 299.309 311.059 300.052 314.46 299.807C312.228 297.38 310.255 294.727 308.572 291.891Z" fill="black"/>
</g>
<path d="M324.342 309.34C313.498 299.633 311.409 296.428 308.572 291.932C304.968 286.177 301.128 284.017 299.93 289.3C305.93 294.124 304.579 301.097 306.688 310.426C308.797 319.754 306.237 333.752 311.501 336.916C316.764 340.081 316.467 329.544 317.973 327.127C319.478 324.71 322.181 323.973 321.731 317.501C321.413 312.904 323.041 311.214 324.342 309.34Z" stroke="#263238" stroke-width="1.03017" stroke-linecap="round" stroke-linejoin="round"/>
<path d="M307.2 296.428C308.353 300.257 309.79 303.995 311.501 307.61C314.429 313.231 317.645 318.628 317.645 318.628" stroke="#263238" stroke-width="0.772628" stroke-linecap="round" stroke-linejoin="round"/>
<path d="M305.408 290.396C305.408 290.396 305.777 291.768 306.432 293.806" stroke="#263238" stroke-width="0.772628" stroke-linecap="round" stroke-linejoin="round"/>
<path d="M260.465 243.415C265.37 240.425 272.855 237.548 281.201 240.282C292.086 243.855 297.789 251.924 301.885 255.734C303.585 254.423 305.756 253.512 312.125 251.095C319.683 248.238 306.678 237.097 303.217 230.932C299.756 224.768 300.206 223.56 286.833 219.945C273.459 216.33 273.889 207.657 271.78 206.705C269.67 205.752 265.912 212.726 265.912 212.726C259.297 219.494 260.649 235.745 260.649 235.745C259.738 236.646 260.188 241.203 260.465 243.415Z" fill="white"/>
<mask id="mask4_101_147" style="mask-type:luminance" maskUnits="userSpaceOnUse" x="260" y="206" width="55" height="50">
<path d="M260.465 243.415C265.37 240.425 272.855 237.548 281.201 240.282C292.086 243.855 297.789 251.924 301.885 255.734C303.585 254.423 305.756 253.512 312.125 251.095C319.683 248.238 306.678 237.097 303.217 230.932C299.756 224.768 300.206 223.56 286.833 219.945C273.459 216.33 273.889 207.657 271.78 206.705C269.67 205.752 265.912 212.726 265.912 212.726C259.297 219.494 260.649 235.745 260.649 235.745C259.738 236.646 260.188 241.203 260.465 243.415Z" fill="white"/>
</mask>
<g mask="url(#mask4_101_147)">
<path d="M305.408 253.768C305.121 249.969 301.517 244.552 293.12 236.646C283.525 227.574 267.643 226.099 260.864 225.894C260.488 229.164 260.406 232.461 260.618 235.745C259.717 236.646 260.168 241.203 260.444 243.415C265.349 240.425 272.835 237.548 281.18 240.282C292.065 243.855 297.769 251.924 301.865 255.734C302.957 254.929 304.148 254.268 305.408 253.768Z" fill="#92E3A9"/>
</g>
<path d="M260.465 243.415C265.37 240.425 272.855 237.548 281.201 240.282C292.086 243.855 297.789 251.924 301.885 255.734C303.585 254.423 305.756 253.512 312.125 251.095C319.683 248.238 306.678 237.097 303.217 230.932C299.756 224.768 300.206 223.56 286.833 219.945C273.459 216.33 273.889 207.657 271.78 206.705C269.67 205.752 265.912 212.726 265.912 212.726C259.297 219.494 260.649 235.745 260.649 235.745C259.738 236.646 260.188 241.203 260.465 243.415Z" stroke="#263238" stroke-width="1.03017" stroke-linecap="round" stroke-linejoin="round"/>
<path d="M274.903 221.839C275.426 220.624 276.014 219.438 276.664 218.286" stroke="#263238" stroke-width="0.772628" stroke-linecap="round" stroke-linejoin="round"/>
<path d="M270.623 236.646C271.336 232.256 272.495 227.95 274.084 223.795" stroke="#263238" stroke-width="0.772628" stroke-linecap="round" stroke-linejoin="round"/>
<path d="M283.781 222.802L284.467 221.901" stroke="#263238" stroke-width="0.772628" stroke-linecap="round" stroke-linejoin="round"/>
<path d="M276.664 236.646C278.055 232.193 280.127 227.982 282.808 224.164" stroke="#263238" stroke-width="0.772628" stroke-linecap="round" stroke-linejoin="round"/>
<path d="M291.84 224.952C292.26 224.666 292.68 224.399 293.11 224.164" stroke="#263238" stroke-width="0.772628" stroke-linecap="round" stroke-linejoin="round"/>
<path d="M281.856 237.568C281.856 237.568 285.184 230.328 290.642 225.894" stroke="#263238" stroke-width="0.772628" stroke-linecap="round" stroke-linejoin="round"/>
<path d="M298.086 228.915C298.535 228.756 298.993 228.626 299.459 228.526" stroke="#263238" stroke-width="0.772628" stroke-linecap="round" stroke-linejoin="round"/>
<path d="M286.822 238.459C286.822 238.459 291.123 232.12 296.776 229.458" stroke="#263238" stroke-width="0.772628" stroke-linecap="round" stroke-linejoin="round"/>
<path d="M298.086 235.52C299.396 234.931 300.771 234.497 302.182 234.23" stroke="#263238" stroke-width="0.772628" stroke-linecap="round" stroke-linejoin="round"/>
<path d="M290.284 241.019C292.043 239.242 294.038 237.716 296.213 236.483" stroke="#263238" stroke-width="0.772628" stroke-linecap="round" stroke-linejoin="round"/>
<path d="M305.756 242.166C306.457 242.053 307.166 241.994 307.876 241.992" stroke="#263238" stroke-width="0.772628" stroke-linecap="round" stroke-linejoin="round"/>
<path d="M296.776 245.832C298.982 244.446 301.361 243.358 303.852 242.596" stroke="#263238" stroke-width="0.772628" stroke-linecap="round" stroke-linejoin="round"/>
<path d="M270.623 214.774C270.899 214.282 271.176 213.75 271.473 213.32" stroke="#263238" stroke-width="0.772628" stroke-linecap="round" stroke-linejoin="round"/>
<path d="M265.452 238.459C265.452 238.459 264.847 226.929 269.67 216.658" stroke="#263238" stroke-width="0.772628" stroke-linecap="round" stroke-linejoin="round"/>
</g>
<defs>
<clipPath id="clip0_101_147">
<rect width="512" height="512" fill="white"/>
</clipPath>
</defs>
</svg>
